<svg xmlns="http://www.w3.org/2000/svg" viewBox="0 0 293.66 288.32"><defs><style>.cls-1,.cls-2,.cls-3{fill:none;stroke:#231f20;stroke-width:3px;}.cls-1,.cls-2,.cls-3,.cls-4,.cls-5,.cls-6{stroke-miterlimit:10;}.cls-2{stroke-dasharray:6.26 6.26;}.cls-3{stroke-dasharray:5.85 5.85;}.cls-12,.cls-13,.cls-4,.cls-7{fill:#231f20;}.cls-4,.cls-5,.cls-6{stroke:#fff;stroke-width:0.5px;}.cls-10,.cls-5,.cls-9{fill:#ed2024;}.cls-6{fill:#939598;}.cls-7,.cls-8,.cls-9{font-size:24px;}.cls-10,.cls-13,.cls-7,.cls-8,.cls-9{font-family:Helvetica-BoldOblique, Helvetica;font-weight:700;font-style:oblique;}.cls-8{fill:gray;}.cls-10,.cls-13{font-size:18px;}.cls-11{fill:#fff;}</style></defs><g id="Layer_2" data-name="Layer 2"><g id="Layer_1-2" data-name="Layer 1"><line class="cls-1" x1="28.72" y1="210.09" x2="30.9" y2="208.03"/><line class="cls-2" x1="35.45" y1="203.74" x2="124.2" y2="119.92"/><line class="cls-1" x1="126.48" y1="117.77" x2="128.66" y2="115.71"/><line class="cls-1" x1="79.51" y1="163.21" x2="82.26" y2="162.01"/><line class="cls-3" x1="87.63" y1="159.68" x2="192.33" y2="114.17"/><line class="cls-1" x1="195.01" y1="113" x2="197.76" y2="111.81"/><rect class="cls-1" x="1.5" y="1.5" width="267.72" height="267.72" rx="12"/><circle class="cls-4" cx="27.42" cy="211.19" r="7.09"/><circle class="cls-4" cx="138.58" cy="137.75" r="7.09"/><circle class="cls-4" cx="79.31" cy="163.25" r="7.09"/><circle class="cls-5" cx="148.78" cy="159.43" r="7.09"/><circle class="cls-6" cx="128.66" cy="115.71" r="7.09"/><circle class="cls-6" cx="197.76" cy="111.81" r="7.09"/><text class="cls-7" transform="translate(23.12 234.84)">z</text><text class="cls-7" transform="translate(35.12 242.83) scale(0.58)">0</text><text class="cls-7" transform="translate(81.73 186.28)">z</text><text class="cls-7" transform="translate(93.73 194.28) scale(0.58)">1</text><text class="cls-7" transform="translate(145.26 146.59)">z</text><text class="cls-7" transform="translate(157.26 154.58) scale(0.58)">2</text><text class="cls-8" transform="translate(111.86 99.21)">ẑ</text><text class="cls-8" transform="translate(123.86 107.21) scale(0.58)">2</text><text class="cls-8" transform="translate(203.91 102.89)">ẑ</text><text class="cls-8" transform="translate(215.91 110.88) scale(0.58)">3</text><text class="cls-7" transform="translate(8.56 28.04)">latent space</text><text class="cls-9" transform="translate(149.79 183.58)">z</text><text class="cls-9" transform="translate(161.79 191.58) scale(0.58)">2</text><text class="cls-10" transform="translate(164.48 172.89) scale(0.58)">enc</text><line class="cls-11" x1="73.2" y1="287.57" x2="142.56" y2="167.52"/><line class="cls-1" x1="73.2" y1="287.57" x2="138.03" y2="175.36"/><path class="cls-12" d="M142.56,167.52a45.52,45.52,0,0,0-.24,14.67l-4.88-5.8L130,175.05A45.36,45.36,0,0,0,142.56,167.52Z"/><text class="cls-13" transform="matrix(0.98, -0.19, 0.19, 0.98, 188.42, 67.08)">decoder</text><text class="cls-13" transform="translate(80.32 265.46) rotate(-59.63)">encoder</text><path class="cls-1" d="M140.73,127.38c0-37.47,63.57-68,143.88-70.2"/><path class="cls-12" d="M293.66,57.06A45.16,45.16,0,0,0,281,64.48l2.41-7.19-2.74-7.07A45.34,45.34,0,0,0,293.66,57.06Z"/></g></g></svg>