<svg xmlns="http://www.w3.org/2000/svg" viewBox="0 0 409.62 177.8"><defs><style>.cls-1,.cls-3,.cls-4{fill:none;stroke:#231f20;stroke-miterlimit:10;}.cls-2{font-size:24px;}.cls-2,.cls-5,.cls-6,.cls-7{fill:#231f20;}.cls-2,.cls-7{font-family:Helvetica-BoldOblique, Helvetica;font-weight:700;}.cls-2,.cls-6,.cls-7{font-style:oblique;}.cls-3{stroke-width:2px;}.cls-4{stroke-width:3px;}.cls-6,.cls-7{font-size:18px;}.cls-6{font-family:Helvetica-Oblique, Helvetica;}</style></defs><g id="Layer_2" data-name="Layer 2"><g id="Layer_1-2" data-name="Layer 1"><rect class="cls-1" x="127.96" y="0.5" width="129.88" height="129.88" rx="12"/><text class="cls-2" transform="translate(184.09 62.12)">z</text><text class="cls-2" transform="translate(196.09 70.11) scale(0.58)">t</text><circle class="cls-3" cx="193.14" cy="58.35" r="19.26"/><text class="cls-2" transform="translate(62.76 62.12)">z</text><text class="cls-2" transform="translate(74.76 70.11) scale(0.58)">t-1</text><circle class="cls-3" cx="78.04" cy="58.35" r="19.26"/><text class="cls-2" transform="translate(291.22 62.12)">z</text><text class="cls-2" transform="translate(303.22 70.11) scale(0.58)">t+1</text><circle class="cls-3" cx="308.25" cy="58.35" r="19.26"/><text class="cls-2" transform="translate(62.08 158.27)">x</text><text class="cls-2" transform="translate(75.43 166.26) scale(0.58)">t-1</text><circle class="cls-3" cx="78.04" cy="154.5" r="19.26"/><text class="cls-2" transform="translate(290.54 158.27)">x</text><text class="cls-2" transform="translate(303.89 166.26) scale(0.58)">t+1</text><text class="cls-2" transform="translate(294.34 149.21) scale(0.58)">^</text><circle class="cls-3" cx="308.25" cy="154.5" r="19.26"/><line class="cls-4" x1="105.5" y1="57.45" x2="158.64" y2="57.45"/><path class="cls-5" d="M167.69,57.45c-4.26,1.58-9.54,4.27-12.82,7.13l2.58-7.13-2.58-7.14A45.29,45.29,0,0,0,167.69,57.45Z"/><line class="cls-4" x1="105.5" y1="136.31" x2="161.29" y2="80.52"/><path class="cls-5" d="M167.69,74.12c-1.89,4.13-3.72,9.77-4,14.11l-3.22-6.87-6.87-3.22C157.92,77.84,163.56,76,167.69,74.12Z"/><line class="cls-4" x1="220.86" y1="74.12" x2="276.65" y2="129.91"/><path class="cls-5" d="M283.05,136.31c-4.13-1.89-9.77-3.72-14.11-4l6.87-3.22L279,122.2C279.32,126.54,281.15,132.18,283.05,136.31Z"/><line class="cls-4" x1="220.86" y1="57.45" x2="274" y2="57.45"/><path class="cls-5" d="M283.05,57.45c-4.26,1.58-9.54,4.27-12.82,7.13l2.58-7.13-2.58-7.14A45.29,45.29,0,0,0,283.05,57.45Z"/><text class="cls-6" transform="translate(298.99 131.91)">reconstructed<tspan x="60.03" y="21.6">image</tspan></text><text class="cls-6" transform="translate(0 131.91)">previous<tspan x="0" y="21.6">image</tspan></text><text class="cls-6" transform="translate(0 31.44)">previous<tspan x="0" y="21.6">latent</tspan></text><text class="cls-6" transform="translate(344.02 31.44)">next<tspan x="-10.01" y="21.6">latent</tspan></text><text class="cls-2" transform="translate(131.45 42.2)">ẑ</text><text class="cls-2" transform="translate(143.45 50.19) scale(0.58)">t</text><text class="cls-7" transform="translate(102.89 129.56) rotate(-45)">encoder</text><text class="cls-7" transform="translate(230.3 74.65) rotate(45)">decoder</text><text class="cls-2" transform="translate(148.2 111.04)">z</text><text class="cls-2" transform="translate(160.2 119.03) scale(0.58)">t</text><text class="cls-7" transform="translate(162.89 100.34) scale(0.58)">enc</text></g></g></svg>