<svg xmlns="http://www.w3.org/2000/svg" viewBox="0 0 270.72 270.72"><defs><style>.cls-1{fill:#fff;stroke:#ed2024;}.cls-1,.cls-2,.cls-3,.cls-4,.cls-5,.cls-6,.cls-7{stroke-miterlimit:10;}.cls-1,.cls-2,.cls-3,.cls-4,.cls-5{stroke-width:3px;}.cls-2,.cls-3,.cls-4,.cls-5{fill:none;stroke:#231f20;}.cls-3{stroke-dasharray:5.91 5.91;}.cls-4{stroke-dasharray:5.76 5.76;}.cls-5{stroke-dasharray:6.26 6.26;}.cls-6,.cls-8{fill:#231f20;}.cls-6,.cls-7{stroke:#fff;stroke-width:0.5px;}.cls-7{fill:#939598;}.cls-8{font-size:24px;font-family:Helvetica-BoldOblique, Helvetica;font-weight:700;}.cls-8,.cls-9{font-style:oblique;}.cls-9{font-size:18px;fill:#ed2024;font-family:Helvetica-Oblique, Helvetica;}</style></defs><g id="Layer_2" data-name="Layer 2"><g id="Layer_1-2" data-name="Layer 1"><line class="cls-1" x1="128.66" y1="115.71" x2="138.58" y2="137.75"/><line class="cls-1" x1="236.57" y1="59.9" x2="228.3" y2="89.82"/><line class="cls-1" x1="107.43" y1="251.49" x2="125.48" y2="251.49"/><line class="cls-1" x1="186.79" y1="98.75" x2="197.69" y2="113.14"/><line class="cls-2" x1="79.31" y1="163.25" x2="82.07" y2="162.06"/><line class="cls-3" x1="87.49" y1="159.71" x2="193.3" y2="113.89"/><line class="cls-2" x1="196.02" y1="112.71" x2="198.77" y2="111.52"/><line class="cls-2" x1="137.08" y1="138.13" x2="139.45" y2="136.29"/><line class="cls-4" x1="143.99" y1="132.75" x2="232.64" y2="63.69"/><line class="cls-2" x1="234.91" y1="61.92" x2="237.27" y2="60.08"/><line class="cls-2" x1="28.72" y1="210.09" x2="30.9" y2="208.03"/><line class="cls-5" x1="35.45" y1="203.74" x2="124.2" y2="119.92"/><line class="cls-2" x1="126.48" y1="117.77" x2="128.66" y2="115.71"/><rect class="cls-2" x="1.5" y="1.5" width="267.72" height="267.72" rx="12"/><circle class="cls-6" cx="27.42" cy="211.19" r="7.09"/><circle class="cls-6" cx="138.58" cy="137.75" r="7.09"/><circle class="cls-6" cx="79.31" cy="163.25" r="7.09"/><circle class="cls-6" cx="186.95" cy="99.58" r="7.09"/><circle class="cls-6" cx="228.3" cy="89.82" r="7.09"/><circle class="cls-7" cx="128.66" cy="115.71" r="7.09"/><circle class="cls-7" cx="197.76" cy="111.81" r="7.09"/><circle class="cls-7" cx="236.48" cy="60.51" r="7.09"/><text class="cls-8" transform="translate(23.12 234.84)">z</text><text class="cls-8" transform="translate(35.12 242.83) scale(0.58)">0</text><text class="cls-8" transform="translate(81.73 186.28)">z</text><text class="cls-8" transform="translate(93.73 194.28) scale(0.58)">1</text><text class="cls-8" transform="translate(141.17 164.52)">z</text><text class="cls-8" transform="translate(153.17 172.51) scale(0.58)">2</text><text class="cls-8" transform="translate(111.86 99.21)">ẑ</text><text class="cls-8" transform="translate(123.86 107.21) scale(0.58)">2</text><text class="cls-8" transform="translate(204.79 133.54)">ẑ</text><text class="cls-8" transform="translate(216.79 141.53) scale(0.58)">3</text><text class="cls-8" transform="translate(213.17 44.8)">ẑ</text><text class="cls-8" transform="translate(225.17 52.79) scale(0.58)">4</text><text class="cls-8" transform="translate(230.28 108.05)">z</text><text class="cls-8" transform="translate(242.28 116.04) scale(0.58)">4</text><text class="cls-8" transform="translate(161.26 84.14)">z</text><text class="cls-8" transform="translate(173.26 92.14) scale(0.58)">3</text><text class="cls-8" transform="translate(8.56 28.04)">latent space</text><text class="cls-9" transform="translate(128.09 258.09)">prediction errors</text></g></g></svg>