<svg xmlns="http://www.w3.org/2000/svg" viewBox="0 0 479.18 252.39"><defs><style>.cls-1,.cls-4,.cls-6,.cls-7,.cls-8,.cls-9{fill:none;}.cls-1,.cls-3,.cls-4,.cls-5,.cls-6,.cls-7,.cls-8,.cls-9{stroke:#231f20;stroke-miterlimit:10;}.cls-1,.cls-5{stroke-width:2px;}.cls-16,.cls-2{fill:#231f20;}.cls-3,.cls-5{fill:#fff;}.cls-3{stroke-width:4px;}.cls-6{stroke-dasharray:1 1;}.cls-7{stroke-dasharray:0.99 0.99;}.cls-8{stroke-dasharray:0.99 0.99;}.cls-9{stroke-dasharray:0.99 0.99;}.cls-10,.cls-12{font-size:18px;fill:#010101;}.cls-10,.cls-13{font-family:Helvetica-Oblique, Helvetica;}.cls-10,.cls-12,.cls-16{font-style:oblique;}.cls-11{font-size:13px;}.cls-12,.cls-15,.cls-16{font-family:Helvetica-BoldOblique, Helvetica;font-weight:700;}.cls-13{font-weight:400;}.cls-14{letter-spacing:-0.02em;}.cls-16{font-size:24px;}</style></defs><g id="Layer_2" data-name="Layer 2"><g id="Layer_1-2" data-name="Layer 1"><line class="cls-1" x1="203.18" y1="109.75" x2="217.28" y2="109.75"/><path class="cls-2" d="M226.34,109.75c-4.26,1.58-9.55,4.28-12.82,7.13l2.58-7.13-2.58-7.13C216.79,105.47,222.08,108.17,226.34,109.75Z"/><line class="cls-1" x1="254.44" y1="109.75" x2="268.54" y2="109.75"/><path class="cls-2" d="M277.6,109.75a45.57,45.57,0,0,0-12.83,7.13l2.59-7.13-2.59-7.13A45.57,45.57,0,0,0,277.6,109.75Z"/><path class="cls-3" d="M10.74,194.64l89.89-19c3-.63,5.41-5.13,5.41-10V49.55c0-4.88-2.41-9.27-5.41-9.77l-89.89-15C6,24,2,28.5,2,34.81V185C2,191.33,6,195.65,10.74,194.64Z"/><path class="cls-4" d="M13.5,109.8c0,35.38,19.55,62.61,42.49,60.9,21.74-1.62,38.55-28.9,38.55-61S77.73,50.36,56,48.8C33.05,47.15,13.5,74.42,13.5,109.8Z"/><path class="cls-4" d="M79.56,129.36C66.7,149.65,45,150.73,31,130.6"/><path class="cls-4" d="M66.55,94.91c0,3.79,2,6.88,4.47,6.9s4.42-3,4.42-6.75-2-6.83-4.42-6.9S66.55,91.12,66.55,94.91Z"/><path class="cls-4" d="M35.31,94.39c0,3.93,2.16,7.14,4.81,7.16s4.76-3.11,4.76-7-2.13-7.09-4.76-7.16S35.31,90.46,35.31,94.39Z"/><path class="cls-5" d="M60.16,180.49l74.91-15.8c2.5-.52,4.51-4.27,4.51-8.33V59.58c0-4.06-2-7.72-4.51-8.14L60.16,39c-4-.66-7.28,3.08-7.28,8.34V172.48C52.88,177.73,56.19,181.33,60.16,180.49Z"/><path class="cls-5" d="M94,166.35l59.93-12.65c2-.42,3.6-3.41,3.6-6.66V69.61c0-3.25-1.61-6.17-3.6-6.5L94,53.12c-3.18-.53-5.83,2.47-5.83,6.67V159.93C88.15,164.14,90.8,167,94,166.35Z"/><path class="cls-5" d="M127.8,152.2l44.94-9.48c1.5-.32,2.71-2.57,2.71-5V79.65c0-2.44-1.21-4.63-2.71-4.88L127.8,67.28c-2.39-.4-4.37,1.85-4.37,5v75.11C123.43,150.54,125.41,152.7,127.8,152.2Z"/><path class="cls-5" d="M161.61,138.05l30-6.32c1-.21,1.8-1.71,1.8-3.34V89.68c0-1.62-.8-3.09-1.8-3.25l-30-5c-1.58-.26-2.91,1.24-2.91,3.34v50.07C158.7,136.94,160,138.38,161.61,138.05Z"/><rect class="cls-1" x="234.14" y="81.4" width="12.5" height="56.69" rx="6.25"/><line class="cls-1" x1="233.78" y1="95.58" x2="246.99" y2="95.58"/><line class="cls-1" x1="233.78" y1="109.75" x2="246.99" y2="109.75"/><line class="cls-1" x1="233.78" y1="123.92" x2="246.99" y2="123.92"/><path class="cls-3" d="M468.44,194.64l-89.89-19c-3-.63-5.41-5.13-5.41-10V49.55c0-4.88,2.41-9.27,5.41-9.77l89.89-15c4.76-.79,8.74,3.7,8.74,10V185C477.18,191.33,473.2,195.65,468.44,194.64Z"/><path class="cls-6" d="M465.68,109.8c0,35.38-19.55,62.61-42.49,60.9-21.74-1.62-38.55-28.9-38.55-61s16.81-59.34,38.55-60.9C446.13,47.15,465.68,74.42,465.68,109.8Z"/><path class="cls-4" d="M399.62,129.36l.27.42"/><path class="cls-7" d="M400.44,130.61c12.77,18.81,33.45,19.68,47.16.8"/><path class="cls-4" d="M447.89,131c.1-.13.19-.27.29-.41"/><path class="cls-8" d="M412.63,94.91c0,3.79-2,6.88-4.47,6.9s-4.42-3-4.42-6.75,2-6.83,4.42-6.9S412.63,91.12,412.63,94.91Z"/><path class="cls-9" d="M443.87,94.39c0,3.93-2.16,7.14-4.81,7.16s-4.76-3.11-4.76-7,2.13-7.09,4.76-7.16S443.87,90.46,443.87,94.39Z"/><path class="cls-5" d="M420.62,180.49l-74.91-15.8c-2.5-.52-4.51-4.27-4.51-8.33V59.58c0-4.06,2-7.72,4.51-8.14L420.62,39c4-.66,7.28,3.08,7.28,8.34V172.48C427.9,177.73,424.59,181.33,420.62,180.49Z"/><path class="cls-5" d="M386.8,166.35,326.87,153.7c-2-.42-3.61-3.41-3.61-6.66V69.61c0-3.25,1.61-6.17,3.61-6.5l59.93-10c3.17-.53,5.82,2.47,5.82,6.67V159.93C392.62,164.14,390,167,386.8,166.35Z"/><path class="cls-5" d="M353,152.2l-45-9.48c-1.49-.32-2.7-2.57-2.7-5V79.65c0-2.44,1.21-4.63,2.7-4.88l45-7.49c2.38-.4,4.37,1.85,4.37,5v75.11C357.35,150.54,355.36,152.7,353,152.2Z"/><path class="cls-5" d="M319.16,138.05l-30-6.32c-1-.21-1.8-1.71-1.8-3.34V89.68c0-1.62.8-3.09,1.8-3.25l30-5c1.59-.26,2.92,1.24,2.92,3.34v50.07C322.08,136.94,320.75,138.38,319.16,138.05Z"/><text class="cls-10" transform="translate(52.88 222.14)">encoder network<tspan x="0" y="21.6">NN</tspan><tspan class="cls-11" x="26" y="13.6">enc</tspan></text><text class="cls-10" transform="translate(293.1 221.38)">decoder network<tspan x="86.12" y="21.6">NN</tspan><tspan class="cls-11" x="112.12" y="13.6">dec</tspan></text><text class="cls-12" transform="translate(235.03 169)">z<tspan class="cls-13"><tspan x="-77.37" y="21.6">latent representatio</tspan><tspan class="cls-14" x="76.72" y="21.6">n</tspan></tspan></text><text class="cls-10" transform="translate(2 18.76)">input <tspan class="cls-15" x="44.03" y="0">x</tspan></text><text class="cls-10" transform="translate(348.84 18.76)">reconstruction <tspan class="cls-15" x="118.05" y="0">x</tspan></text><text class="cls-16" transform="translate(468.31 12.03) scale(0.58)">^</text></g></g></svg>