<svg xmlns="http://www.w3.org/2000/svg" xmlns:xlink="http://www.w3.org/1999/xlink" viewBox="0 0 616.63 809.01"><defs><style>.cls-1,.cls-5,.cls-6,.cls-7,.cls-8{fill:none;}.cls-2{font-size:24px;fill:#231f20;font-family:Helvetica-Oblique, Helvetica;font-style:oblique;}.cls-3{clip-path:url(#clip-path);}.cls-4{clip-path:url(#clip-path-2);}.cls-5{stroke:#1f78b4;}.cls-5,.cls-6,.cls-7,.cls-8{stroke-linecap:square;stroke-linejoin:round;stroke-width:3px;}.cls-6{stroke:#f57e20;}.cls-7{stroke:#2da048;}.cls-8{stroke:#d52928;}.cls-9{clip-path:url(#clip-path-3);}.cls-10{clip-path:url(#clip-path-4);}.cls-11{clip-path:url(#clip-path-5);}.cls-12{clip-path:url(#clip-path-6);}.cls-13{clip-path:url(#clip-path-7);}.cls-14{clip-path:url(#clip-path-8);}.cls-15{clip-path:url(#clip-path-9);}.cls-16{clip-path:url(#clip-path-10);}.cls-17{clip-path:url(#clip-path-11);}.cls-18{clip-path:url(#clip-path-12);}.cls-19{clip-path:url(#clip-path-13);}.cls-20{clip-path:url(#clip-path-14);}.cls-21{clip-path:url(#clip-path-15);}.cls-22{clip-path:url(#clip-path-16);}.cls-23{clip-path:url(#clip-path-17);}.cls-24{clip-path:url(#clip-path-18);}.cls-25{clip-path:url(#clip-path-19);}.cls-26{clip-path:url(#clip-path-20);}.cls-27{clip-path:url(#clip-path-21);}.cls-28{clip-path:url(#clip-path-22);}.cls-29{clip-path:url(#clip-path-23);}.cls-30{clip-path:url(#clip-path-24);}.cls-31{clip-path:url(#clip-path-25);}</style><clipPath id="clip-path" transform="translate(0 -3.18)"><rect class="cls-1" x="117.27" width="502.2" height="815.4"/></clipPath><clipPath id="clip-path-2" transform="translate(0 -3.18)"><rect class="cls-1" x="117.27" width="109.17" height="116.49"/></clipPath><clipPath id="clip-path-3" transform="translate(0 -3.18)"><rect class="cls-1" x="248.28" width="109.17" height="116.49"/></clipPath><clipPath id="clip-path-4" transform="translate(0 -3.18)"><rect class="cls-1" x="379.29" width="109.17" height="116.49"/></clipPath><clipPath id="clip-path-5" transform="translate(0 -3.18)"><rect class="cls-1" x="510.3" width="109.17" height="116.49"/></clipPath><clipPath id="clip-path-6" transform="translate(0 -3.18)"><rect class="cls-1" x="117.27" y="139.78" width="109.17" height="116.49"/></clipPath><clipPath id="clip-path-7" transform="translate(0 -3.18)"><rect class="cls-1" x="248.28" y="139.78" width="109.17" height="116.49"/></clipPath><clipPath id="clip-path-8" transform="translate(0 -3.18)"><rect class="cls-1" x="379.29" y="139.78" width="109.17" height="116.49"/></clipPath><clipPath id="clip-path-9" transform="translate(0 -3.18)"><rect class="cls-1" x="510.3" y="139.78" width="109.17" height="116.49"/></clipPath><clipPath id="clip-path-10" transform="translate(0 -3.18)"><rect class="cls-1" x="117.27" y="279.57" width="109.17" height="116.49"/></clipPath><clipPath id="clip-path-11" transform="translate(0 -3.18)"><rect class="cls-1" x="248.28" y="279.57" width="109.17" height="116.49"/></clipPath><clipPath id="clip-path-12" transform="translate(0 -3.18)"><rect class="cls-1" x="379.29" y="279.57" width="109.17" height="116.49"/></clipPath><clipPath id="clip-path-13" transform="translate(0 -3.18)"><rect class="cls-1" x="510.3" y="279.57" width="109.17" height="116.49"/></clipPath><clipPath id="clip-path-14" transform="translate(0 -3.18)"><rect class="cls-1" x="117.27" y="419.35" width="109.17" height="116.49"/></clipPath><clipPath id="clip-path-15" transform="translate(0 -3.18)"><rect class="cls-1" x="248.28" y="419.35" width="109.17" height="116.49"/></clipPath><clipPath id="clip-path-16" transform="translate(0 -3.18)"><rect class="cls-1" x="379.29" y="419.35" width="109.17" height="116.49"/></clipPath><clipPath id="clip-path-17" transform="translate(0 -3.18)"><rect class="cls-1" x="510.3" y="419.35" width="109.17" height="116.49"/></clipPath><clipPath id="clip-path-18" transform="translate(0 -3.18)"><rect class="cls-1" x="117.27" y="559.13" width="109.17" height="116.49"/></clipPath><clipPath id="clip-path-19" transform="translate(0 -3.18)"><rect class="cls-1" x="248.28" y="559.13" width="109.17" height="116.49"/></clipPath><clipPath id="clip-path-20" transform="translate(0 -3.18)"><rect class="cls-1" x="379.29" y="559.13" width="109.17" height="116.49"/></clipPath><clipPath id="clip-path-21" transform="translate(0 -3.18)"><rect class="cls-1" x="510.3" y="559.13" width="109.17" height="116.49"/></clipPath><clipPath id="clip-path-22" transform="translate(0 -3.18)"><rect class="cls-1" x="117.27" y="698.92" width="109.17" height="116.49"/></clipPath><clipPath id="clip-path-23" transform="translate(0 -3.18)"><rect class="cls-1" x="248.28" y="698.92" width="109.17" height="116.49"/></clipPath><clipPath id="clip-path-24" transform="translate(0 -3.18)"><rect class="cls-1" x="379.29" y="698.92" width="109.17" height="116.49"/></clipPath><clipPath id="clip-path-25" transform="translate(0 -3.18)"><rect class="cls-1" x="510.3" y="698.92" width="109.17" height="116.49"/></clipPath></defs><g id="Layer_2" data-name="Layer 2"><g id="Layer_1-2" data-name="Layer 1"><text class="cls-2" transform="translate(1.17 202.87)">β = 0.005</text><text class="cls-2" transform="translate(14.52 342.8)">β = 0.03</text><text class="cls-2" transform="translate(1.17 482.73)">β = 0.166</text><text class="cls-2" transform="translate(0 622.65)">β = 0.910</text><text class="cls-2" transform="translate(46.71 762.58)">β = 5</text><text class="cls-2" transform="translate(0 62.95)">β = 0.001</text><g class="cls-3"><g class="cls-4"><polyline class="cls-5" points="122.23 71.6 128.85 72.51 135.47 73.2 142.09 73.46 148.7 73.45 155.32 72.66 161.94 72.05 168.55 71.8 175.17 72.13 181.78 71.61 188.4 70.54 195.02 70.47 201.63 69.89 208.25 68.37 214.87 69.39 221.48 67.11"/><polyline class="cls-6" points="122.23 75.19 128.85 74.58 135.47 73.94 142.09 74.49 148.7 74.47 155.32 74.92 161.94 74.31 168.55 74.97 175.17 76.17 181.78 78.38 188.4 82.95 195.02 85.15 201.63 88.73 208.25 95.05 214.87 97.92 221.48 108.01"/><polyline class="cls-7" points="122.23 52.89 128.85 57.32 135.47 62.33 142.09 65.45 148.7 68.66 155.32 71.52 161.94 74.11 168.55 75.3 175.17 75.33 181.78 75.97 188.4 77.15 195.02 77.45 201.63 77.52 208.25 78.43 214.87 78.72 221.48 81.06"/><polyline class="cls-8" points="122.23 2.12 128.85 12.78 135.47 26.67 142.09 35.05 148.7 44.45 155.32 54.13 161.94 64.01 168.55 70.74 175.17 75.04 181.78 75.89 188.4 76.61 195.02 74.9 201.63 73.41 208.25 72.62 214.87 72.51 221.48 72.28"/></g><g class="cls-9"><polyline class="cls-5" points="253.24 35.87 259.86 35.07 266.48 34.88 273.09 33.07 279.71 32.67 286.33 32.97 292.94 31.68 299.56 27.68 306.18 28.27 312.79 28.37 319.41 28.6 326.03 29.21 332.64 29.19 339.26 29.39 345.88 30.78 352.49 29.65"/><polyline class="cls-6" points="253.24 2.12 259.86 4.69 266.48 5.8 273.09 8.68 279.71 12.4 286.33 18.98 292.94 23.73 299.56 32.15 306.18 31.99 312.79 32.45 319.41 31.65 326.03 31.3 332.64 30.11 339.26 29.97 345.88 26.92 352.49 24.72"/><polyline class="cls-7" points="253.24 36.93 259.86 35.29 266.48 34.07 273.09 32.64 279.71 31.79 286.33 30.86 292.94 31.21 299.56 31.83 306.18 33.27 312.79 35.6 319.41 38.24 326.03 41.28 332.64 44.38 339.26 50.71 345.88 57.37 352.49 68.45"/><polyline class="cls-8" points="253.24 50.45 259.86 45.03 266.48 40.48 273.09 35.93 279.71 31.72 286.33 27.39 292.94 24.68 299.56 25.62 306.18 34.58 312.79 41.58 319.41 50.34 326.03 56.85 332.64 62.78 339.26 74.77 345.88 89.58 352.49 108.01"/></g><g class="cls-10"><polyline class="cls-5" points="384.25 2.12 390.87 9.64 397.49 16.8 404.1 23.11 410.72 28.64 417.33 34.15 423.95 39.34 430.57 44.46 437.19 49.31 443.8 55.64 450.42 62.87 457.04 71.13 463.65 79.65 470.27 88.89 476.88 99.56 483.5 108.01"/><polyline class="cls-6" points="384.25 49.08 390.87 49.69 397.49 49.82 404.1 49.98 410.72 49.81 417.33 49.32 423.95 49.3 430.57 49.64 437.19 49.85 443.8 49.2 450.42 49.46 457.04 50.37 463.65 51.18 470.27 52.32 476.88 53.32 483.5 54.54"/><polyline class="cls-7" points="384.25 10.81 390.87 17.64 397.49 24.14 404.1 29.76 410.72 34.49 417.33 39.01 423.95 43.18 430.57 47.47 437.19 52.58 443.8 57.06 450.42 61.39 457.04 66.35 463.65 71.01 470.27 75.75 476.88 79.74 483.5 84.66"/><polyline class="cls-8" points="384.25 58.26 390.87 56.73 397.49 55.66 404.1 54.11 410.72 52.59 417.33 51.29 423.95 50.97 430.57 49.94 437.19 46.99 443.8 41.04 450.42 37.29 457.04 34.7 463.65 33.79 470.27 32.6 476.88 30.68 483.5 27.74"/></g><g class="cls-11"><polyline class="cls-5" points="515.26 97.26 521.88 92.7 528.49 88.65 535.11 84.86 541.73 80.59 548.34 75.61 554.96 71.3 561.58 66.95 568.19 60.79 574.81 54.83 581.43 48.16 588.04 40.06 594.66 32.26 601.28 22.98 607.89 13.43 614.51 2.12"/><polyline class="cls-6" points="515.26 73.08 521.88 72.08 528.49 71.48 535.11 70.37 541.73 69.82 548.34 69.74 554.96 68.43 561.58 68.1 568.19 66.88 574.81 67.14 581.43 67.41 588.04 67.46 594.66 68.01 601.28 67.82 607.89 67.63 614.51 67.67"/><polyline class="cls-7" points="515.26 7.42 521.88 17.61 528.49 27.26 535.11 36.3 541.73 44.67 548.34 52.35 554.96 58.87 561.58 65.29 568.19 70.11 574.81 75.51 581.43 80.66 588.04 86.03 594.66 91.45 601.28 96.57 607.89 101.73 614.51 108.01"/><polyline class="cls-8" points="515.26 94.32 521.88 90.48 528.49 86.98 535.11 83.91 541.73 81.13 548.34 78.33 554.96 74.97 561.58 69.94 568.19 60.98 574.81 57.09 581.43 55.91 588.04 53.94 594.66 51.61 601.28 49.49 607.89 46.85 614.51 44.5"/></g><g class="cls-12"><polyline class="cls-5" points="122.23 171.65 128.85 176.03 135.47 179.56 142.09 185.49 148.7 190.17 155.32 194.81 161.94 198.32 168.55 200.99 175.17 205.16 181.78 207.24 188.4 210.52 195.02 213.56 201.63 217.71 208.25 223.5 214.87 226.46 221.48 229.08"/><polyline class="cls-6" points="122.23 220.01 128.85 219.13 135.47 218.49 142.09 217.92 148.7 216.99 155.32 216.79 161.94 216.54 168.55 215.88 175.17 215.46 181.78 214.76 188.4 214.57 195.02 214.98 201.63 215.77 208.25 216.68 214.87 217.6 221.48 217.88"/><polyline class="cls-7" points="122.23 223.03 128.85 224.12 135.47 224.82 142.09 226.09 148.7 227.13 155.32 227.65 161.94 226.9 168.55 225.52 175.17 224.83 181.78 223.31 188.4 222.83 195.02 223.94 201.63 225.34 208.25 226.49 214.87 227.72 221.48 228.46"/><polyline class="cls-8" points="122.23 247.8 128.85 240.68 135.47 231.34 142.09 225.1 148.7 217.59 155.32 213.22 161.94 207.25 168.55 202.71 175.17 198.73 181.78 192.65 188.4 187.17 195.02 181.39 201.63 171.2 208.25 161.86 214.87 150.22 221.48 141.9"/></g><g class="cls-13"><polyline class="cls-5" points="253.24 247.8 259.86 236.68 266.48 229.67 273.09 221.52 279.71 213.34 286.33 207.68 292.94 203.06 299.56 198.11 306.18 195.23 312.79 189.48 319.41 183.28 326.03 177.94 332.64 170.75 339.26 162.36 345.88 153.2 352.49 141.9"/><polyline class="cls-6" points="253.24 211.32 259.86 210.46 266.48 210.09 273.09 209.63 279.71 209.19 286.33 209.51 292.94 209.08 299.56 208.73 306.18 208.7 312.79 208.7 319.41 208.41 326.03 208.26 332.64 207.91 339.26 207.65 345.88 207.4 352.49 206.94"/><polyline class="cls-7" points="253.24 217.94 259.86 218.44 266.48 218.03 273.09 218.09 279.71 217.89 286.33 218.21 292.94 218.05 299.56 217.72 306.18 217.48 312.79 217.17 319.41 216.52 326.03 216.95 332.64 217.5 339.26 217.69 345.88 217.99 352.49 217.64"/><polyline class="cls-8" points="253.24 223.34 259.86 218.61 266.48 213.57 273.09 208.58 279.71 203.86 286.33 202.49 292.94 199.95 299.56 195.63 306.18 193.92 312.79 191.14 319.41 188.92 326.03 185.67 332.64 179.3 339.26 174.57 345.88 170.42 352.49 167.73"/></g><g class="cls-14"><polyline class="cls-5" points="384.25 181.53 390.87 182.75 397.49 184.13 404.1 185.8 410.72 187.82 417.33 190.08 423.95 192.5 430.57 195.01 437.19 197.81 443.8 200.21 450.42 202.53 457.04 204.46 463.65 206.4 470.27 207.62 476.88 209.05 483.5 209.75"/><polyline class="cls-6" points="384.25 197.39 390.87 197.4 397.49 197.31 404.1 197.24 410.72 197.18 417.33 197.15 423.95 197.13 430.57 197.06 437.19 197.03 443.8 197.08 450.42 197.12 457.04 197.18 463.65 197.23 470.27 197.36 476.88 197.36 483.5 197.38"/><polyline class="cls-7" points="384.25 197.19 390.87 197.29 397.49 197.29 404.1 197.26 410.72 197.26 417.33 197.34 423.95 197.42 430.57 197.47 437.19 197.48 443.8 197.43 450.42 197.37 457.04 197.25 463.65 197.18 470.27 197.12 476.88 197.11 483.5 196.94"/><polyline class="cls-8" points="384.25 247.8 390.87 237.94 397.49 227.82 404.1 219.72 410.72 213.53 417.33 207.98 423.95 203.27 430.57 198.6 437.19 193.87 443.8 188.93 450.42 183.73 457.04 177.77 463.65 170.99 470.27 161.86 476.88 150.77 483.5 141.9"/></g><g class="cls-15"><polyline class="cls-5" points="515.26 247.8 521.88 238.22 528.49 228.18 535.11 220.54 541.73 214.26 548.34 209.13 554.96 204.42 561.58 199.69 568.19 194.74 574.81 189.79 581.43 184.32 588.04 178.28 594.66 171.33 601.28 162.05 607.89 150.92 614.51 141.9"/><polyline class="cls-6" points="515.26 198.05 521.88 198.07 528.49 198.09 535.11 198.04 541.73 197.96 548.34 197.91 554.96 197.91 561.58 197.88 568.19 197.84 574.81 197.84 581.43 197.85 588.04 197.91 594.66 197.96 601.28 198.09 607.89 198.12 614.51 198.16"/><polyline class="cls-7" points="515.26 198 521.88 198.16 528.49 198.31 535.11 198.28 541.73 198.28 548.34 198.32 554.96 198.32 561.58 198.32 568.19 198.3 574.81 198.28 581.43 198.25 588.04 198.19 594.66 198.12 601.28 198.08 607.89 198.15 614.51 198.21"/><polyline class="cls-8" points="515.26 211.67 521.88 210.87 528.49 209.42 535.11 207.65 541.73 205.56 548.34 203.37 554.96 201.01 561.58 198.37 568.19 195.83 574.81 193.04 581.43 190.84 588.04 188.6 594.66 186.75 601.28 185.16 607.89 183.89 614.51 183.16"/></g><g class="cls-16"><polyline class="cls-5" points="122.23 281.68 128.85 285.87 135.47 289.33 142.09 290.78 148.7 292.05 155.32 294.43 161.94 296.93 168.55 299.88 175.17 302.28 181.78 305.67 188.4 308.47 195.02 310.54 201.63 313.78 208.25 314.77 214.87 316.63 221.48 321.02"/><polyline class="cls-6" points="122.23 314.1 128.85 314.09 135.47 314.1 142.09 314.11 148.7 314.12 155.32 314.11 161.94 314.07 168.55 314.04 175.17 314.01 181.78 314 188.4 314.01 195.02 314.01 201.63 314.01 208.25 314 214.87 314 221.48 314.01"/><polyline class="cls-7" points="122.23 348.63 128.85 351.31 135.47 354.58 142.09 358.56 148.7 360.69 155.32 362.93 161.94 364.62 168.55 366.29 175.17 369 181.78 371.81 188.4 373.87 195.02 375.43 201.63 377.58 208.25 381.63 214.87 384.98 221.48 387.58"/><polyline class="cls-8" points="122.23 316.98 128.85 316.9 135.47 316.86 142.09 316.84 148.7 316.84 155.32 316.85 161.94 316.9 168.55 316.95 175.17 317.01 181.78 317.07 188.4 317.12 195.02 317.08 201.63 317.07 208.25 317.02 214.87 316.98 221.48 316.98"/></g><g class="cls-17"><polyline class="cls-5" points="253.24 324.67 259.86 321 266.48 316.3 273.09 315.01 279.71 312.37 286.33 309.64 292.94 307.6 299.56 304.98 306.18 303.27 312.79 300.33 319.41 297.11 326.03 295.31 332.64 293.14 339.26 289.72 345.88 285.41 352.49 281.68"/><polyline class="cls-6" points="253.24 317.16 259.86 316.97 266.48 316.79 273.09 316.69 279.71 316.58 286.33 316.53 292.94 316.54 299.56 316.55 306.18 316.54 312.79 316.51 319.41 316.48 326.03 316.42 332.64 316.38 339.26 316.29 345.88 316.21 352.49 316.16"/><polyline class="cls-7" points="253.24 344.9 259.86 347.87 266.48 351.23 273.09 355.38 279.71 358.05 286.33 360.59 292.94 362.27 299.56 364.24 306.18 366.62 312.79 368.78 319.41 370.9 326.03 373.22 332.64 374.64 339.26 380.27 345.88 384.35 352.49 387.58"/><polyline class="cls-8" points="253.24 318.75 259.86 318.87 266.48 318.98 273.09 319.08 279.71 319.17 286.33 319.22 292.94 319.24 299.56 319.27 306.18 319.31 312.79 319.37 319.41 319.43 326.03 319.41 332.64 319.43 339.26 319.49 345.88 319.56 352.49 319.6"/></g><g class="cls-18"><polyline class="cls-5" points="384.25 283.08 390.87 287.76 397.49 293.21 404.1 299.3 410.72 305.49 417.33 311.66 423.95 318.44 430.57 325.37 437.19 332.62 443.8 340.55 450.42 348.34 457.04 355.96 463.65 363.93 470.27 372.46 476.88 379.74 483.5 387.58"/><polyline class="cls-6" points="384.25 331.22 390.87 331.11 397.49 331.07 404.1 331.05 410.72 331 417.33 330.96 423.95 330.92 430.57 330.87 437.19 330.87 443.8 330.9 450.42 331 457.04 331.16 463.65 331.38 470.27 331.64 476.88 331.91 483.5 332.1"/><polyline class="cls-7" points="384.25 281.68 390.87 289.52 397.49 296.8 404.1 305.11 410.72 313.13 417.33 321.13 423.95 328.63 430.57 335.54 437.19 342.34 443.8 349.45 450.42 355.96 457.04 362.22 463.65 368.71 470.27 375.27 476.88 380.14 483.5 384.58"/><polyline class="cls-8" points="384.25 331.42 390.87 331.36 397.49 331.31 404.1 331.25 410.72 331.22 417.33 331.21 423.95 331.22 430.57 331.28 437.19 331.34 443.8 331.39 450.42 331.43 457.04 331.44 463.65 331.39 470.27 331.3 476.88 331.16 483.5 331.09"/></g><g class="cls-19"><polyline class="cls-5" points="515.26 378.61 521.88 374.28 528.49 369.22 535.11 363.38 541.73 357.41 548.34 351.77 554.96 345.57 561.58 339.41 568.19 333.1 574.81 325.86 581.43 318.73 588.04 310.75 594.66 303.37 601.28 296 607.89 289.04 614.51 281.68"/><polyline class="cls-6" points="515.26 338.96 521.88 338.9 528.49 338.82 535.11 338.72 541.73 338.59 548.34 338.46 554.96 338.34 561.58 338.22 568.19 338.15 574.81 338.15 581.43 338.19 588.04 338.32 594.66 338.51 601.28 338.77 607.89 339.05 614.51 339.29"/><polyline class="cls-7" points="515.26 294.01 521.88 300.61 528.49 307.7 535.11 315.12 541.73 322.19 548.34 329.36 554.96 336.33 561.58 342.61 568.19 348.49 574.81 354.7 581.43 360.69 588.04 367.04 594.66 372.73 601.28 378.39 607.89 383.22 614.51 387.58"/><polyline class="cls-8" points="515.26 338.94 521.88 338.85 528.49 338.74 535.11 338.63 541.73 338.52 548.34 338.45 554.96 338.45 561.58 338.54 568.19 338.63 574.81 338.73 581.43 338.83 588.04 338.88 594.66 338.89 601.28 338.88 607.89 338.82 614.51 338.75"/></g><g class="cls-20"><polyline class="cls-5" points="122.23 484.18 128.85 487.81 135.47 487.74 142.09 490.84 148.7 488.33 155.32 490.28 161.94 492.42 168.55 492.54 175.17 490.75 181.78 488.99 188.4 489.58 195.02 491.38 201.63 489.45 208.25 489.21 214.87 486.81 221.48 483.4"/><polyline class="cls-6" points="122.23 421.47 128.85 423.62 135.47 428.45 142.09 432 148.7 438.19 155.32 442.93 161.94 447.8 168.55 449.07 175.17 451.7 181.78 455.52 188.4 460.74 195.02 465.34 201.63 471.26 208.25 477.1 214.87 483.72 221.48 482.87"/><polyline class="cls-7" points="122.23 524.76 128.85 523.19 135.47 527.36 142.09 526.46 148.7 525.21 155.32 526.23 161.94 526.4 168.55 526.5 175.17 525.27 181.78 523.52 188.4 524.22 195.02 523.82 201.63 524.84 208.25 523.06 214.87 519.02 221.48 517.88"/><polyline class="cls-8" points="122.23 514.05 128.85 504.39 135.47 499.45 142.09 495.5 148.7 489.93 155.32 484.73 161.94 479.15 168.55 476.41 175.17 475.94 181.78 473.8 188.4 471.74 195.02 472.1 201.63 465.35 208.25 464.48 214.87 462.58 221.48 461.83"/></g><g class="cls-21"><polyline class="cls-5" points="253.24 489.53 259.86 486.92 266.48 479 273.09 479.31 279.71 479.55 286.33 476.61 292.94 475.83 299.56 478.46 306.18 475.62 312.79 476.63 319.41 474.76 326.03 475.04 332.64 478.18 339.26 475.82 345.88 472.49 352.49 470.71"/><polyline class="cls-6" points="253.24 421.47 259.86 425.41 266.48 431.28 273.09 429.03 279.71 426.89 286.33 431.8 292.94 430.88 299.56 432.47 306.18 432.98 312.79 434.87 319.41 437.84 326.03 435.15 332.64 435.85 339.26 435.89 345.88 434.06 352.49 436.24"/><polyline class="cls-7" points="253.24 527.36 259.86 525.57 266.48 525.68 273.09 525.69 279.71 523.08 286.33 522.35 292.94 517.6 299.56 515.97 306.18 516.1 312.79 514.13 319.41 512.97 326.03 511.5 332.64 508.41 339.26 507.07 345.88 505.97 352.49 503.72"/><polyline class="cls-8" points="253.24 480.94 259.86 477.8 266.48 475.43 273.09 472.94 279.71 472.51 286.33 465.48 292.94 464.16 299.56 459.66 306.18 456.61 312.79 459.21 319.41 452.46 326.03 453.13 332.64 443.08 339.26 442.77 345.88 441.42 352.49 437.48"/></g><g class="cls-22"><polyline class="cls-5" points="384.25 470.18 390.87 470.13 397.49 469.62 404.1 469.29 410.72 469.66 417.33 469.95 423.95 470.16 430.57 470.03 437.19 469.98 443.8 469.54 450.42 469.31 457.04 468.84 463.65 469.52 470.27 469.57 476.88 469.02 483.5 468.81"/><polyline class="cls-6" points="384.25 422.83 390.87 421.47 397.49 422.31 404.1 425.45 410.72 430.63 417.33 437.61 423.95 446.52 430.57 457.37 437.19 468.99 443.8 480.91 450.42 491.75 457.04 501.16 463.65 509.88 470.27 517.58 476.88 523.36 483.5 527.36"/><polyline class="cls-7" points="384.25 469.24 390.87 470.71 397.49 471.75 404.1 472.79 410.72 473.85 417.33 475.08 423.95 475.68 430.57 476.11 437.19 476.27 443.8 476.14 450.42 475.54 457.04 474.5 463.65 473.84 470.27 472.68 476.88 471.44 483.5 468.86"/><polyline class="cls-8" points="384.25 511.29 390.87 510.66 397.49 508.22 404.1 503.65 410.72 497.54 417.33 489.96 423.95 481.33 430.57 471.72 437.19 461.48 443.8 451.68 450.42 442.75 457.04 434.97 463.65 429.09 470.27 425.19 476.88 422.37 483.5 421.89"/></g><g class="cls-23"><polyline class="cls-5" points="515.26 501 521.88 500.66 528.49 499.04 535.11 496.38 541.73 493.02 548.34 490.38 554.96 487.71 561.58 485.03 568.19 482.05 574.81 478.43 581.43 475.4 588.04 472.05 594.66 469.88 601.28 467.94 607.89 467.38 614.51 467.44"/><polyline class="cls-6" points="515.26 482.83 521.88 479.87 528.49 476.73 535.11 474.75 541.73 472.8 548.34 472.03 554.96 472.29 561.58 473.46 568.19 475.69 574.81 478.08 581.43 480.94 588.04 483.72 594.66 487.22 601.28 491.14 607.89 495.2 614.51 498.77"/><polyline class="cls-7" points="515.26 511.73 521.88 512.67 528.49 512.01 535.11 510.64 541.73 508.12 548.34 504.81 554.96 500.32 561.58 494.72 568.19 488.77 574.81 482.54 581.43 476.65 588.04 471.16 594.66 466.04 601.28 461.38 607.89 457.92 614.51 455.61"/><polyline class="cls-8" points="515.26 527.36 521.88 526.3 528.49 523.63 535.11 518.91 541.73 512.94 548.34 504.85 554.96 495.15 561.58 484.4 568.19 473.21 574.81 461.93 581.43 451.74 588.04 442.91 594.66 434.51 601.28 427.53 607.89 423.14 614.51 421.47"/></g><g class="cls-24"><polyline class="cls-5" points="122.23 611.76 128.85 615.95 135.47 615.26 142.09 617.23 148.7 617.28 155.32 616.1 161.94 617.76 168.55 619.07 175.17 615.44 181.78 615.81 188.4 615.39 195.02 619.38 201.63 620.59 208.25 616.2 214.87 617.91 221.48 617.49"/><polyline class="cls-6" points="122.23 561.25 128.85 562.02 135.47 561.6 142.09 562.79 148.7 563.53 155.32 563.34 161.94 564.3 168.55 568.44 175.17 565.83 181.78 574.22 188.4 575.42 195.02 574.89 201.63 580.4 208.25 576.36 214.87 577.86 221.48 581.1"/><polyline class="cls-7" points="122.23 651.06 128.85 652.36 135.47 660.12 142.09 659.76 148.7 660.41 155.32 664.06 161.94 662.12 168.55 667.14 175.17 666.44 181.78 664.88 188.4 666.3 195.02 660.75 201.63 662.93 208.25 665.71 214.87 664.19 221.48 663.26"/><polyline class="cls-8" points="122.23 652.17 128.85 647.15 135.47 645.05 142.09 644.15 148.7 641.32 155.32 640.71 161.94 637.03 168.55 635.47 175.17 633.78 181.78 631.92 188.4 630.02 195.02 633.1 201.63 630.93 208.25 630.77 214.87 631.49 221.48 631.99"/></g><g class="cls-25"><polyline class="cls-5" points="253.24 618.11 259.86 618.98 266.48 612.98 273.09 610.85 279.71 612.71 286.33 614.47 292.94 613.43 299.56 615.41 306.18 615.55 312.79 614.99 319.41 614.79 326.03 613 332.64 612.66 339.26 615.3 345.88 616.3 352.49 617.23"/><polyline class="cls-6" points="253.24 566.13 259.86 567.47 266.48 568.84 273.09 562.54 279.71 561.25 286.33 562.99 292.94 566.87 299.56 570.14 306.18 568.91 312.79 567.44 319.41 565.35 326.03 567.53 332.64 565.15 339.26 572.16 345.88 571.93 352.49 572.23"/><polyline class="cls-7" points="253.24 665.27 259.86 665.52 266.48 663.19 273.09 664.62 279.71 664.64 286.33 667.13 292.94 667.14 299.56 666.33 306.18 663.68 312.79 661.85 319.41 661.7 326.03 660.2 332.64 660.14 339.26 655.04 345.88 653.01 352.49 649.37"/><polyline class="cls-8" points="253.24 639.55 259.86 637.7 266.48 637.45 273.09 639.24 279.71 640.36 286.33 638.36 292.94 636.6 299.56 632.98 306.18 630.28 312.79 632.38 319.41 629.83 326.03 630.15 332.64 629.45 339.26 625.35 345.88 624.21 352.49 624.1"/></g><g class="cls-26"><polyline class="cls-5" points="384.25 606.07 390.87 607.34 397.49 607.77 404.1 607.36 410.72 606.73 417.33 606.35 423.95 606.59 430.57 607.2 437.19 608.25 443.8 609.41 450.42 609.76 457.04 607.97 463.65 606.3 470.27 605.73 476.88 605.76 483.5 604.58"/><polyline class="cls-6" points="384.25 573.69 390.87 571.5 397.49 570.46 404.1 569.85 410.72 571.39 417.33 574.78 423.95 579.56 430.57 586.04 437.19 596.07 443.8 607.05 450.42 618.26 457.04 627.82 463.65 636.76 470.27 644.92 476.88 654.99 483.5 661.85"/><polyline class="cls-7" points="384.25 592.73 390.87 596.72 397.49 601.01 404.1 606.23 410.72 611.62 417.33 617 423.95 621.72 430.57 625.11 437.19 627.66 443.8 630.25 450.42 630.42 457.04 631.48 463.65 630.74 470.27 628.59 476.88 627.32 483.5 624.79"/><polyline class="cls-8" points="384.25 667.14 390.87 665.6 397.49 661.55 404.1 655.44 410.72 648 417.33 638.55 423.95 628.87 430.57 619.05 437.19 608.53 443.8 597.09 450.42 586.1 457.04 577.08 463.65 570.03 470.27 565.55 476.88 562.22 483.5 561.25"/></g><g class="cls-27"><polyline class="cls-5" points="515.26 619.52 521.88 618.66 528.49 617.26 535.11 616.38 541.73 615.82 548.34 615.5 554.96 614.98 561.58 613.88 568.19 613.73 574.81 612.87 581.43 611.32 588.04 609.1 594.66 606.75 601.28 604.65 607.89 605.29 614.51 605.42"/><polyline class="cls-6" points="515.26 614.41 521.88 610.18 528.49 605.82 535.11 601.87 541.73 598.44 548.34 596.95 554.96 596.08 561.58 596.97 568.19 598.57 574.81 600.58 581.43 603.84 588.04 607.87 594.66 613.19 601.28 618.91 607.89 624.3 614.51 629.53"/><polyline class="cls-7" points="515.26 633.88 521.88 635.46 528.49 636.87 535.11 638.64 541.73 640.26 548.34 638.71 554.96 636.45 561.58 633.35 568.19 629.19 574.81 625.14 581.43 620.59 588.04 617.29 594.66 612.83 601.28 607.91 607.89 602.18 614.51 597.93"/><polyline class="cls-8" points="515.26 667.14 521.88 665.68 528.49 661.17 535.11 656.06 541.73 650.36 548.34 643.42 554.96 634.64 561.58 624.87 568.19 614.25 574.81 604.11 581.43 593.08 588.04 583.91 594.66 575.86 601.28 568.77 607.89 563.28 614.51 561.25"/></g><g class="cls-28"><polyline class="cls-5" points="122.23 805.17 128.85 806.93 135.47 804.07 142.09 804.53 148.7 805.22 155.32 803.63 161.94 805.19 168.55 804.59 175.17 804.36 181.78 805.33 188.4 805.56 195.02 806.4 201.63 806.33 208.25 806.46 214.87 805.66 221.48 804.34"/><polyline class="cls-6" points="122.23 701.03 128.85 701.78 135.47 703.03 142.09 702.93 148.7 703.15 155.32 702.75 161.94 702.78 168.55 703.65 175.17 703.68 181.78 703.85 188.4 704.2 195.02 702.77 201.63 703.92 208.25 702.77 214.87 704.54 221.48 706.52"/><polyline class="cls-7" points="122.23 802.81 128.85 799.63 135.47 803.65 142.09 804.83 148.7 803.01 155.32 802.21 161.94 804.03 168.55 803.17 175.17 804.17 181.78 804.67 188.4 803.7 195.02 803.45 201.63 802.25 208.25 802.04 214.87 803.07 221.48 803.8"/><polyline class="cls-8" points="122.23 709.34 128.85 711.72 135.47 708.15 142.09 710.15 148.7 711.24 155.32 711.21 161.94 712.06 168.55 710.98 175.17 710.41 181.78 711.11 188.4 710.64 195.02 713.7 201.63 711.71 208.25 713.82 214.87 710.14 221.48 705.79"/></g><g class="cls-29"><polyline class="cls-5" points="253.24 806.25 259.86 806.93 266.48 804.16 273.09 804.51 279.71 804.4 286.33 804.62 292.94 804.38 299.56 804.45 306.18 804.56 312.79 802.34 319.41 802.91 326.03 802.91 332.64 803.96 339.26 805.65 345.88 803.28 352.49 803.39"/><polyline class="cls-6" points="253.24 704.93 259.86 708.11 266.48 705 273.09 705.88 279.71 706.41 286.33 706.01 292.94 705.32 299.56 707.05 306.18 705.79 312.79 704.58 319.41 701.43 326.03 701.98 332.64 701.03 339.26 702.64 345.88 706.91 352.49 707.23"/><polyline class="cls-7" points="253.24 805.33 259.86 806.05 266.48 805.57 273.09 805.25 279.71 803.09 286.33 803.32 292.94 804.62 299.56 802.64 306.18 804.46 312.79 802.45 319.41 802.69 326.03 803.02 332.64 800.08 339.26 803.59 345.88 806.08 352.49 805.63"/><polyline class="cls-8" points="253.24 716.64 259.86 715.83 266.48 713.91 273.09 713.42 279.71 712.38 286.33 713.27 292.94 714.35 299.56 711.24 306.18 713.69 312.79 714.15 319.41 720.04 326.03 718.9 332.64 720.5 339.26 715.87 345.88 707.05 352.49 706.85"/></g><g class="cls-30"><polyline class="cls-5" points="384.25 785.71 390.87 786.41 397.49 787.48 404.1 787.82 410.72 788.39 417.33 788.05 423.95 786.75 430.57 785.19 437.19 781.98 443.8 777.18 450.42 774.59 457.04 774.71 463.65 775.07 470.27 776.08 476.88 776.6 483.5 778.66"/><polyline class="cls-6" points="384.25 725.69 390.87 724.52 397.49 724.37 404.1 725.66 410.72 727.26 417.33 729.34 423.95 732.41 430.57 737.27 437.19 746.52 443.8 754.94 450.42 763.4 457.04 772.09 463.65 782.46 470.27 790.45 476.88 797.02 483.5 806.93"/><polyline class="cls-7" points="384.25 742.26 390.87 750.37 397.49 757.89 404.1 765.16 410.72 771.23 417.33 775.28 423.95 778.2 430.57 781.23 437.19 785.08 443.8 788.24 450.42 785.3 457.04 782.66 463.65 778.29 470.27 777.89 476.88 777.87 483.5 777.06"/><polyline class="cls-8" points="384.25 786.35 390.87 784.68 397.49 782.48 404.1 778.03 410.72 773.16 417.33 768.38 423.95 760.7 430.57 749.89 437.19 739.69 443.8 729.23 450.42 721.16 457.04 717.18 463.65 711.83 470.27 708.53 476.88 704.31 483.5 701.03"/></g><g class="cls-31"><polyline class="cls-5" points="515.26 806.49 521.88 805.78 528.49 805.32 535.11 803.36 541.73 801.1 548.34 798.44 554.96 797.04 561.58 795.85 568.19 792.97 574.81 790.32 581.43 785.35 588.04 782.66 594.66 779.56 601.28 779.13 607.89 780.15 614.51 781.27"/><polyline class="cls-6" points="515.26 768.31 521.88 767.94 528.49 766.47 535.11 762.05 541.73 756.53 548.34 752.38 554.96 750.21 561.58 749.89 568.19 750.72 574.81 751.91 581.43 755.29 588.04 758.07 594.66 761.73 601.28 767.15 607.89 775.11 614.51 785.77"/><polyline class="cls-7" points="515.26 802.12 521.88 801.51 528.49 799.32 535.11 798 541.73 796.2 548.34 794.71 554.96 794.16 561.58 794.6 568.19 792.82 574.81 789.35 581.43 781.19 588.04 776.98 594.66 773.54 601.28 769.33 607.89 764.69 614.51 760.2"/><polyline class="cls-8" points="515.26 806.93 521.88 802.88 528.49 800.94 535.11 796.91 541.73 790.58 548.34 780.86 554.96 769.9 561.58 759.08 568.19 746.08 574.81 736 581.43 723.01 588.04 715.34 594.66 708.38 601.28 704.38 607.89 702.89 614.51 701.03"/></g></g></g></g></svg>