<svg xmlns="http://www.w3.org/2000/svg" xmlns:xlink="http://www.w3.org/1999/xlink" viewBox="0 0 552.53 145.75"><defs><style>.cls-1,.cls-4,.cls-5,.cls-6,.cls-7{fill:none;}.cls-2{fill:#fff;}.cls-3{clip-path:url(#clip-path);}.cls-4{stroke:#2278b5;}.cls-4,.cls-5,.cls-6,.cls-7{stroke-linecap:square;stroke-linejoin:round;stroke-width:1.5px;}.cls-5{stroke:#f57f20;}.cls-6{stroke:#2fa148;}.cls-7{stroke:#d62a28;}.cls-8{clip-path:url(#clip-path-2);}.cls-9{clip-path:url(#clip-path-3);}.cls-10{clip-path:url(#clip-path-4);}.cls-11{font-size:18px;fill:#010101;font-family:Helvetica-Oblique, Helvetica;font-style:oblique;}</style><clipPath id="clip-path"><rect class="cls-1" x="50.34" y="4.8" width="109.2" height="112"/></clipPath><clipPath id="clip-path-2"><rect class="cls-1" x="181.34" y="4.8" width="109.2" height="112"/></clipPath><clipPath id="clip-path-3"><rect class="cls-1" x="312.34" y="5.5" width="109.2" height="110.6"/></clipPath><clipPath id="clip-path-4"><rect class="cls-1" x="443.34" y="6.2" width="109.2" height="109.2"/></clipPath></defs><g id="Layer_2" data-name="Layer 2"><g id="Layer_1-2" data-name="Layer 1"><rect class="cls-2" x="50.34" y="4.78" width="109.17" height="112.04"/><g class="cls-3"><polyline class="cls-4" points="55.31 110.68 61.92 104.44 68.54 97.72 75.16 90.86 81.77 84.6 88.39 77.94 95.01 71.56 101.62 65.12 108.24 58 114.86 51.41 121.47 44.72 128.09 38.57 134.71 31.59 141.32 25.21 147.94 17.75 154.56 11.43"/><polyline class="cls-5" points="55.31 61.52 61.92 61.18 68.54 61.24 75.16 61.29 81.77 61.35 88.39 61.44 95.01 61.86 101.62 62.19 108.24 62.23 114.86 61.21 121.47 61.28 128.09 61.52 134.71 61.54 141.32 61.47 147.94 61.78 154.56 61.73"/><polyline class="cls-6" points="55.31 61.7 61.92 61.38 68.54 60.93 75.16 61.08 81.77 60.98 88.39 61.13 95.01 60.98 101.62 60.89 108.24 61.05 114.86 61.16 121.47 60.9 128.09 61.32 134.71 61.13 141.32 61.18 147.94 61.2 154.56 61.06"/><polyline class="cls-7" points="55.31 61.1 61.92 61.13 68.54 60.91 75.16 61.18 81.77 61.27 88.39 61.31 95.01 61.42 101.62 61.35 108.24 61.18 114.86 61.14 121.47 61.21 128.09 61.14 134.71 60.95 141.32 61.13 147.94 61.05 154.56 60.91"/></g><rect class="cls-2" x="181.35" y="4.79" width="109.17" height="112.01"/><g class="cls-8"><polyline class="cls-4" points="186.31 61.16 192.93 61.67 199.55 61.69 206.16 61.45 212.78 61.63 219.4 61.42 226.01 62.12 232.63 61.55 239.25 61.27 245.87 61.75 252.48 61.56 259.1 61.37 265.71 61.55 272.33 61.75 278.95 61.79 285.56 61.18"/><polyline class="cls-5" points="186.31 110.69 192.93 104.6 199.55 97.73 206.16 91.28 212.78 84.86 219.4 78.63 226.01 72.31 232.63 65.46 239.25 58.26 245.87 51.4 252.48 44.96 259.1 38.53 265.71 31.74 272.33 25.15 278.95 18.12 285.56 12.27"/><polyline class="cls-6" points="186.31 61.12 192.93 60.97 199.55 61.12 206.16 60.85 212.78 61.14 219.4 61.05 226.01 61.25 232.63 61.29 239.25 60.8 245.87 61.11 252.48 61.05 259.1 61.31 265.71 61.36 272.33 61.1 278.95 61.39 285.56 61.42"/><polyline class="cls-7" points="186.31 61.66 192.93 61.58 199.55 61.43 206.16 61.69 212.78 61.38 219.4 61.5 226.01 61.2 232.63 61.15 239.25 61.2 245.87 61.17 252.48 61.34 259.1 61.28 265.71 61.41 272.33 61.2 278.95 61.14 285.56 61.18"/></g><rect class="cls-2" x="312.36" y="5.52" width="109.17" height="110.56"/><g class="cls-9"><polyline class="cls-4" points="317.32 61.01 323.94 61.18 330.56 61.12 337.17 61.2 343.79 61.21 350.41 61.17 357.02 61.29 363.64 61.36 370.26 61.39 376.87 61.26 383.49 61 390.11 61.06 396.72 61.07 403.34 60.95 409.96 60.99 416.57 61.02"/><polyline class="cls-5" points="317.32 61.49 323.94 61.41 330.56 61.22 337.17 61.28 343.79 61.35 350.41 61.71 357.02 61.84 363.64 61.96 370.26 61.87 376.87 61.88 383.49 61.94 390.11 61.8 396.72 61.38 403.34 60.95 409.96 60.96 416.57 60.8"/><polyline class="cls-6" points="317.32 110.78 323.94 104.41 330.56 97.75 337.17 91 343.79 84.51 350.41 77.9 357.02 71.06 363.64 64.23 370.26 57.54 376.87 51.16 383.49 44.62 390.11 37.68 396.72 31.19 403.34 24.71 409.96 18.12 416.57 11.53"/><polyline class="cls-7" points="317.32 60.74 323.94 60.87 330.56 60.8 337.17 60.97 343.79 61.05 350.41 61.06 357.02 61.32 363.64 61.34 370.26 61.28 376.87 61.21 383.49 61.03 390.11 60.83 396.72 60.76 403.34 60.85 409.96 61.06 416.57 61"/></g><rect class="cls-2" x="443.36" y="6.21" width="109.17" height="109.17"/><g class="cls-10"><polyline class="cls-4" points="448.33 60.81 454.95 60.82 461.57 61.19 468.18 61.43 474.8 61.43 481.42 61.28 488.03 61.28 494.65 61.32 501.26 61.43 507.88 61.49 514.5 61.44 521.12 61.6 527.73 61.5 534.35 61.31 540.97 61.3 547.58 61.05"/><polyline class="cls-5" points="448.33 61.35 454.95 61.63 461.57 61.67 468.18 62.02 474.8 62.17 481.42 62.09 488.03 62.11 494.65 61.98 501.26 61.93 507.88 61.75 514.5 61.69 521.12 61.55 527.73 61.5 534.35 61.3 540.97 60.78 547.58 60.84"/><polyline class="cls-6" points="448.33 60.71 454.95 60.88 461.57 61.07 468.18 61.08 474.8 61.06 481.42 60.94 488.03 60.99 494.65 60.94 501.26 60.83 507.88 60.92 514.5 60.97 521.12 61.04 527.73 61.27 534.35 61.52 540.97 61.32 547.58 60.96"/><polyline class="cls-7" points="448.33 110.42 454.95 104.08 461.57 97.17 468.18 90.81 474.8 84.23 481.42 77.56 488.03 71.03 494.65 64.72 501.26 58.04 507.88 51.61 514.5 44.91 521.12 38.15 527.73 31.38 534.35 24.64 540.97 17.92 547.58 11.17"/></g><text class="cls-11" transform="translate(76.16 137.1)">circle x</text><text class="cls-11" transform="translate(207.05 137.1)">circle y</text><text class="cls-11" transform="translate(323.13 137.1)">gaussian x</text><text class="cls-11" transform="translate(454.03 137.1)">gaussian y</text><text class="cls-11" transform="translate(15.46 121.6) rotate(-90)">latent variables<tspan x="39.53" y="21.6">(a.u.)</tspan></text></g></g></svg>